<svg width="30" height="30" viewBox="0 0 30 30" fill="none" xmlns="http://www.w3.org/2000/svg">
<path fill-rule="evenodd" clip-rule="evenodd" d="M14.5455 5.46721C13.9618 5.46721 13.402 5.69908 12.9893 6.11181C12.5765 6.52455 12.3447 7.08433 12.3447 7.66802V7.92234C12.8895 7.91256 13.4871 7.91256 14.1445 7.91256H14.9475C15.6029 7.91256 16.2015 7.91256 16.7473 7.92234V7.66802C16.7473 7.37893 16.6903 7.09266 16.5797 6.82558C16.469 6.5585 16.3068 6.31584 16.1023 6.11147C15.8979 5.90709 15.6551 5.745 15.388 5.63446C15.1209 5.52391 14.8346 5.46708 14.5455 5.46721ZM18.2135 7.98885V7.66802C18.2135 6.6952 17.8271 5.76223 17.1392 5.07434C16.4513 4.38645 15.5183 4 14.5455 4C13.5727 4 12.6397 4.38645 11.9518 5.07434C11.2639 5.76223 10.8775 6.6952 10.8775 7.66802V7.98885C10.7376 8.00059 10.6036 8.01428 10.4725 8.03091C9.4846 8.15318 8.67078 8.40945 7.97826 8.98362C7.28672 9.55779 6.8847 10.311 6.58246 11.2598C6.28901 12.1792 6.06795 13.3598 5.79016 14.8456L5.76962 14.9532C5.37641 17.0494 5.06732 18.7014 5.00961 20.0033C4.95092 21.3385 5.15046 22.4438 5.90363 23.3505C6.65679 24.2582 7.70634 24.6573 9.02878 24.8461C10.3199 25.03 11.9994 25.03 14.1327 25.03H14.9592C17.0916 25.03 18.772 25.03 20.0622 24.8461C21.3846 24.6573 22.4352 24.2582 23.1883 23.3505C23.9415 22.4438 24.1391 21.3385 24.0814 20.0033C24.0246 18.7014 23.7146 17.0494 23.3214 14.9532L23.3018 14.8456C23.023 13.3598 22.801 12.1782 22.5095 11.2598C22.2063 10.311 21.8052 9.55779 21.1127 8.98362C20.4212 8.40945 19.6064 8.1522 18.6185 8.03091C18.4838 8.01439 18.3487 8.00037 18.2135 7.98885ZM10.6525 9.48736C9.81619 9.59007 9.31049 9.78472 8.91532 10.1134C8.52113 10.4401 8.23649 10.9008 7.98022 11.7048C7.71905 12.5264 7.51267 13.62 7.22314 15.1645C6.81623 17.333 6.52768 18.8814 6.47584 20.0679C6.42498 21.2319 6.61278 21.9068 7.0324 22.4145C7.453 22.9202 8.08194 23.2283 9.23615 23.3926C10.4099 23.5608 11.9867 23.5628 14.1934 23.5628H14.8976C17.1053 23.5628 18.6801 23.5608 19.8548 23.3936C21.009 23.2283 21.638 22.9202 22.0586 22.4145C22.4792 21.9078 22.666 21.2329 22.6161 20.0669C22.5633 18.8824 22.2747 17.333 21.8678 15.1645C21.5783 13.619 21.3729 12.5274 21.1108 11.7048C20.8545 10.9008 20.5708 10.4401 20.1757 10.1124C19.7805 9.78472 19.2758 9.59007 18.4385 9.48638C17.5816 9.38075 16.4695 9.37977 14.8976 9.37977H14.1934C12.6215 9.37977 11.5093 9.38075 10.6525 9.48736Z" fill="black"/>
</svg>
