<svg width="30" height="30" viewBox="0 0 30 30" fill="none" xmlns="http://www.w3.org/2000/svg">
<path d="M15 8.75889L14.4977 9.24261C14.5628 9.31013 14.6408 9.36384 14.7271 9.40053C14.8134 9.43721 14.9062 9.45612 15 9.45612C15.0938 9.45612 15.1866 9.43721 15.2729 9.40053C15.3592 9.36384 15.4372 9.31013 15.5023 9.24261L15 8.75889ZM12.6056 20.6863C11.1953 19.5747 9.65395 18.4891 8.4307 17.1124C7.23256 15.7617 6.39535 14.1868 6.39535 12.1421H5C5 14.6221 6.03256 16.5142 7.38791 18.0389C8.71814 19.5366 10.4149 20.7366 11.7414 21.7821L12.6056 20.6863ZM6.39535 12.1421C6.39535 10.1421 7.52558 8.46401 9.06884 7.75796C10.5684 7.07238 12.5833 7.25377 14.4977 9.24261L15.5023 8.2761C13.2326 5.9161 10.5944 5.52633 8.48837 6.48912C6.42884 7.43145 5 9.61936 5 12.1421H6.39535ZM11.7414 21.7821C12.2186 22.158 12.7302 22.558 13.2484 22.8612C13.7665 23.1635 14.3581 23.4101 15 23.4101V22.0147C14.7116 22.0147 14.373 21.9031 13.9526 21.6566C13.5312 21.411 13.0949 21.0724 12.6056 20.6863L11.7414 21.7821ZM18.2586 21.7821C19.5851 20.7356 21.2819 19.5375 22.6121 18.0389C23.9674 16.5133 25 14.6221 25 12.1421H23.6047C23.6047 14.1868 22.7674 15.7617 21.5693 17.1124C20.346 18.4891 18.8047 19.5747 17.3944 20.6863L18.2586 21.7821ZM25 12.1421C25 9.61936 23.5721 7.43145 21.5116 6.48912C19.4056 5.52633 16.7693 5.9161 14.4977 8.27517L15.5023 9.24261C17.4167 7.2547 19.4316 7.07238 20.9312 7.75796C22.4744 8.46401 23.6047 10.1412 23.6047 12.1421H25ZM17.3944 20.6863C16.9051 21.0724 16.4688 21.411 16.0474 21.6566C15.627 21.9021 15.2884 22.0147 15 22.0147V23.4101C15.6419 23.4101 16.2335 23.1635 16.7516 22.8612C17.2707 22.558 17.7814 22.158 18.2586 21.7821L17.3944 20.6863Z" fill="black"/>
</svg>
