<svg width="24" height="24" viewBox="0 0 24 24" fill="none" xmlns="http://www.w3.org/2000/svg">
<path d="M8.00024 2.99902C5.23924 2.99902 3.00024 5.23802 3.00024 7.99902V15.999C3.00024 18.76 5.23924 20.999 8.00024 20.999H16.0002C18.7612 20.999 21.0002 18.76 21.0002 15.999V7.99902C21.0002 5.23802 18.7612 2.99902 16.0002 2.99902H8.00024ZM18.0002 4.99902C18.5522 4.99902 19.0002 5.44702 19.0002 5.99902C19.0002 6.55102 18.5522 6.99902 18.0002 6.99902C17.4482 6.99902 17.0002 6.55102 17.0002 5.99902C17.0002 5.44702 17.4482 4.99902 18.0002 4.99902ZM12.0002 6.99902C14.7612 6.99902 17.0002 9.23802 17.0002 11.999C17.0002 14.76 14.7612 16.999 12.0002 16.999C9.23924 16.999 7.00024 14.76 7.00024 11.999C7.00024 9.23802 9.23924 6.99902 12.0002 6.99902ZM12.0002 8.99902C11.2046 8.99902 10.4415 9.31509 9.87892 9.8777C9.31632 10.4403 9.00025 11.2034 9.00025 11.999C9.00025 12.7947 9.31632 13.5577 9.87892 14.1203C10.4415 14.683 11.2046 14.999 12.0002 14.999C12.7959 14.999 13.559 14.683 14.1216 14.1203C14.6842 13.5577 15.0002 12.7947 15.0002 11.999C15.0002 11.2034 14.6842 10.4403 14.1216 9.8777C13.559 9.31509 12.7959 8.99902 12.0002 8.99902Z" fill="currentColor"/>
</svg>
