<svg width="15" height="16" viewBox="0 0 15 16" fill="none" xmlns="http://www.w3.org/2000/svg">
<path d="M13.125 8C13.125 8.12432 13.0756 8.24355 12.9877 8.33146C12.8998 8.41936 12.7806 8.46875 12.6562 8.46875H7.96875V13.1562C7.96875 13.2806 7.91936 13.3998 7.83146 13.4877C7.74355 13.5756 7.62432 13.625 7.5 13.625C7.37568 13.625 7.25645 13.5756 7.16854 13.4877C7.08064 13.3998 7.03125 13.2806 7.03125 13.1562V8.46875H2.34375C2.21943 8.46875 2.1002 8.41936 2.01229 8.33146C1.92439 8.24355 1.875 8.12432 1.875 8C1.875 7.87568 1.92439 7.75645 2.01229 7.66854C2.1002 7.58064 2.21943 7.53125 2.34375 7.53125H7.03125V2.84375C7.03125 2.71943 7.08064 2.6002 7.16854 2.51229C7.25645 2.42439 7.37568 2.375 7.5 2.375C7.62432 2.375 7.74355 2.42439 7.83146 2.51229C7.91936 2.6002 7.96875 2.71943 7.96875 2.84375V7.53125H12.6562C12.7806 7.53125 12.8998 7.58064 12.9877 7.66854C13.0756 7.75645 13.125 7.87568 13.125 8Z" fill="#1D1D1B"/>
</svg>
