<svg width="24" height="24" viewBox="0 0 24 24" fill="none" xmlns="http://www.w3.org/2000/svg">
<path d="M22 3.99805C21.22 4.46105 19.655 5.09205 18.735 5.27405C18.708 5.28105 18.686 5.29005 18.66 5.29705C17.847 4.49505 16.733 3.99805 15.5 3.99805C13.015 3.99805 11 6.01305 11 8.49805C11 8.62905 10.989 8.87005 11 8.99805C7.647 8.99805 5.095 7.24205 3.265 4.99805C3.066 5.49805 2.979 6.28805 2.979 7.03005C2.979 8.43105 4.074 9.80705 5.779 10.66C5.465 10.741 5.119 10.799 4.759 10.799C4.178 10.799 3.563 10.646 3 10.182C3 10.199 3 10.215 3 10.233C3 12.191 5.078 13.524 6.926 13.895C6.551 14.116 5.795 14.138 5.426 14.138C5.166 14.138 4.246 14.019 4 13.973C4.514 15.578 6.368 16.48 8.135 16.512C6.753 17.596 5.794 17.998 2.964 17.998H2C3.788 19.144 6.065 19.999 8.347 19.999C15.777 19.999 20 14.336 20 8.99805C20 8.91205 19.998 8.73205 19.995 8.55105C19.995 8.53305 20 8.51605 20 8.49805C20 8.47105 19.992 8.44505 19.992 8.41805C19.989 8.28205 19.986 8.15505 19.983 8.08905C20.773 7.51905 21.458 6.80805 22 5.99805C21.275 6.32005 20.497 6.53605 19.68 6.63405C20.514 6.13405 21.699 4.94205 22 3.99805Z" fill="currentColor"/>
</svg>
