<svg width="30" height="30" viewBox="0 0 30 30" fill="none" xmlns="http://www.w3.org/2000/svg">
<path d="M6 25.86V24.5563C6 22.1358 6.96151 19.8145 8.67302 18.103C10.3845 16.3915 12.7058 15.43 15.1262 15.43M15.1262 15.43C17.5467 15.43 19.868 16.3915 21.5795 18.103C23.291 19.8145 24.2525 22.1358 24.2525 24.5563V25.86M15.1262 15.43C16.5094 15.43 17.8358 14.8806 18.8138 13.9026C19.7918 12.9246 20.3412 11.5981 20.3412 10.215C20.3412 8.8319 19.7918 7.50544 18.8138 6.52744C17.8358 5.54944 16.5094 5 15.1262 5C13.7431 5 12.4167 5.54944 11.4387 6.52744C10.4607 7.50544 9.91125 8.8319 9.91125 10.215C9.91125 11.5981 10.4607 12.9246 11.4387 13.9026C12.4167 14.8806 13.7431 15.43 15.1262 15.43Z" stroke="black" stroke-width="1.5" stroke-linecap="round" stroke-linejoin="round"/>
</svg>
